<svg width="42" height="42" viewBox="0 0 42 42" fill="none" xmlns="http://www.w3.org/2000/svg">
<g clip-path="url(#clip0_148_236)">
<path d="M21 0L39.1865 10.5V31.5L21 42L2.81347 31.5V10.5L21 0Z" fill="black"/>
<mask id="path-2-outside-1_148_236" maskUnits="userSpaceOnUse" x="5" y="3" width="19" height="34" fill="black">
<rect fill="white" x="5" y="3" width="19" height="34"/>
<path d="M14.58 13.8L9.9 16.5V13.5L21.84 6.6V9.6L17.16 12.3V33L14.58 34.5V13.8ZM14.58 13.8V34.5L11.97 33V12.3L14.58 13.8ZM21.84 6.6L9.9 13.5L7.29 12L19.26 5.1L21.84 6.6ZM9.9 13.5V16.5L7.29 15V12L9.9 13.5Z"/>
</mask>
<path d="M14.58 13.8L9.9 16.5V13.5L21.84 6.6V9.6L17.16 12.3V33L14.58 34.5V13.8ZM14.58 13.8V34.5L11.97 33V12.3L14.58 13.8ZM21.84 6.6L9.9 13.5L7.29 12L19.26 5.1L21.84 6.6ZM9.9 13.5V16.5L7.29 15V12L9.9 13.5Z" fill="black"/>
<path d="M14.58 13.8H15.58V12.0686L14.0803 12.9338L14.58 13.8ZM9.9 16.5H8.9V18.2314L10.3997 17.3662L9.9 16.5ZM9.9 13.5L9.39965 12.6342L8.9 12.9229V13.5H9.9ZM21.84 6.6H22.84V4.86714L21.3397 5.73417L21.84 6.6ZM21.84 9.6L22.3397 10.4662L22.84 10.1776V9.6H21.84ZM17.16 12.3L16.6603 11.4338L16.16 11.7224V12.3H17.16ZM17.16 33L17.6626 33.8645L18.16 33.5753V33H17.16ZM14.58 34.5H13.58V36.2381L15.0826 35.3645L14.58 34.5ZM14.58 13.8H15.58V13.2213L15.0783 12.933L14.58 13.8ZM14.58 34.5L14.0817 35.367L15.58 36.2281V34.5H14.58ZM11.97 33H10.97V33.5787L11.4717 33.867L11.97 33ZM11.97 12.3L12.4683 11.433L10.97 10.5719V12.3H11.97ZM21.84 6.6L22.3403 7.46582L23.8341 6.60262L22.3426 5.73549L21.84 6.6ZM9.9 13.5L9.40172 14.367L9.90138 14.6542L10.4004 14.3658L9.9 13.5ZM7.29 12L6.79059 11.1336L5.28538 12.0013L6.79172 12.867L7.29 12ZM19.26 5.1L19.7626 4.23549L19.2621 3.94452L18.7606 4.23363L19.26 5.1ZM9.9 13.5H10.9V12.9213L10.3983 12.633L9.9 13.5ZM9.9 16.5L9.40172 17.367L10.9 18.2281V16.5H9.9ZM7.29 15H6.29V15.5787L6.79172 15.867L7.29 15ZM7.29 12L7.78828 11.133L6.29 10.2719V12H7.29ZM14.58 13.8L14.0803 12.9338L9.40028 15.6338L9.9 16.5L10.3997 17.3662L15.0797 14.6662L14.58 13.8ZM9.9 16.5H10.9V13.5H9.9H8.9V16.5H9.9ZM9.9 13.5L10.4004 14.3658L22.3403 7.46582L21.84 6.6L21.3397 5.73417L9.39965 12.6342L9.9 13.5ZM21.84 6.6H20.84V9.6H21.84H22.84V6.6H21.84ZM21.84 9.6L21.3403 8.73381L16.6603 11.4338L17.16 12.3L17.6597 13.1662L22.3397 10.4662L21.84 9.6ZM17.16 12.3H16.16V33H17.16H18.16V12.3H17.16ZM17.16 33L16.6574 32.1355L14.0774 33.6355L14.58 34.5L15.0826 35.3645L17.6626 33.8645L17.16 33ZM14.58 34.5H15.58V13.8H14.58H13.58V34.5H14.58ZM14.58 13.8H13.58V34.5H14.58H15.58V13.8H14.58ZM14.58 34.5L15.0783 33.633L12.4683 32.133L11.97 33L11.4717 33.867L14.0817 35.367L14.58 34.5ZM11.97 33H12.97V12.3H11.97H10.97V33H11.97ZM11.97 12.3L11.4717 13.167L14.0817 14.667L14.58 13.8L15.0783 12.933L12.4683 11.433L11.97 12.3ZM21.84 6.6L21.3397 5.73417L9.39965 12.6342L9.9 13.5L10.4004 14.3658L22.3403 7.46582L21.84 6.6ZM9.9 13.5L10.3983 12.633L7.78828 11.133L7.29 12L6.79172 12.867L9.40172 14.367L9.9 13.5ZM7.29 12L7.78941 12.8664L19.7594 5.96636L19.26 5.1L18.7606 4.23363L6.79059 11.1336L7.29 12ZM19.26 5.1L18.7574 5.9645L21.3374 7.46451L21.84 6.6L22.3426 5.73549L19.7626 4.23549L19.26 5.1ZM9.9 13.5H8.9V16.5H9.9H10.9V13.5H9.9ZM9.9 16.5L10.3983 15.633L7.78828 14.133L7.29 15L6.79172 15.867L9.40172 17.367L9.9 16.5ZM7.29 15H8.29V12H7.29H6.29V15H7.29ZM7.29 12L6.79172 12.867L9.40172 14.367L9.9 13.5L10.3983 12.633L7.78828 11.133L7.29 12Z" fill="white" mask="url(#path-2-outside-1_148_236)"/>
<mask id="path-4-outside-2_148_236" maskUnits="userSpaceOnUse" x="20" y="9" width="16" height="28" fill="black">
<rect fill="white" x="20" y="9" width="16" height="28"/>
<path d="M32.05 12.25C32.6167 11.9167 33.1167 11.875 33.55 12.125C33.9833 12.375 34.2 12.8333 34.2 13.5V17C34.2 17.4333 34.1 17.9 33.9 18.4C33.7 18.9 33.4333 19.3667 33.1 19.8C32.7833 20.2167 32.4333 20.5333 32.05 20.75C32.6167 20.4167 33.1167 20.375 33.55 20.625C33.9833 20.875 34.2 21.3333 34.2 22V27C34.2 27.45 34.1 27.925 33.9 28.425C33.7 28.9083 33.4333 29.3667 33.1 29.8C32.7833 30.2167 32.4333 30.5333 32.05 30.75L28.575 32.75C28.0083 33.0833 27.5083 33.125 27.075 32.875C26.6417 32.625 26.425 32.1667 26.425 31.5V34L24.25 35.25V16.75L32.05 12.25ZM32.05 20.75V14.75L26.425 18V24L32.05 20.75ZM32.05 23.25L26.425 26.5V31.5L32.05 28.25V23.25ZM26.425 31.5C26.425 32.1667 26.6417 32.625 27.075 32.875L24.9 31.625C24.4667 31.375 24.25 30.9167 24.25 30.25L26.425 31.5ZM33.55 20.625C33.1167 20.375 32.6167 20.4167 32.05 20.75L29.875 19.5C30.4417 19.1667 30.95 19.125 31.4 19.375L33.55 20.625ZM32.05 23.25V28.25L29.875 27V22L32.05 23.25ZM32.05 28.25L26.425 31.5L24.25 30.25L29.875 27L32.05 28.25ZM32.05 14.75V20.75L29.875 19.5V13.5L32.05 14.75ZM32.05 20.75L26.425 24L24.25 22.75L29.875 19.5L32.05 20.75ZM33.55 12.125C33.1167 11.875 32.6167 11.9167 32.05 12.25L24.25 16.75L22.075 15.5L29.875 11C30.4417 10.6667 30.95 10.625 31.4 10.875L33.55 12.125ZM24.25 16.75V35.25L22.075 34V15.5L24.25 16.75Z"/>
</mask>
<path d="M32.05 12.25C32.6167 11.9167 33.1167 11.875 33.55 12.125C33.9833 12.375 34.2 12.8333 34.2 13.5V17C34.2 17.4333 34.1 17.9 33.9 18.4C33.7 18.9 33.4333 19.3667 33.1 19.8C32.7833 20.2167 32.4333 20.5333 32.05 20.75C32.6167 20.4167 33.1167 20.375 33.55 20.625C33.9833 20.875 34.2 21.3333 34.2 22V27C34.2 27.45 34.1 27.925 33.9 28.425C33.7 28.9083 33.4333 29.3667 33.1 29.8C32.7833 30.2167 32.4333 30.5333 32.05 30.75L28.575 32.75C28.0083 33.0833 27.5083 33.125 27.075 32.875C26.6417 32.625 26.425 32.1667 26.425 31.5V34L24.25 35.25V16.75L32.05 12.25ZM32.05 20.75V14.75L26.425 18V24L32.05 20.75ZM32.05 23.25L26.425 26.5V31.5L32.05 28.25V23.25ZM26.425 31.5C26.425 32.1667 26.6417 32.625 27.075 32.875L24.9 31.625C24.4667 31.375 24.25 30.9167 24.25 30.25L26.425 31.5ZM33.55 20.625C33.1167 20.375 32.6167 20.4167 32.05 20.75L29.875 19.5C30.4417 19.1667 30.95 19.125 31.4 19.375L33.55 20.625ZM32.05 23.25V28.25L29.875 27V22L32.05 23.25ZM32.05 28.25L26.425 31.5L24.25 30.25L29.875 27L32.05 28.25ZM32.05 14.75V20.75L29.875 19.5V13.5L32.05 14.75ZM32.05 20.75L26.425 24L24.25 22.75L29.875 19.5L32.05 20.75ZM33.55 12.125C33.1167 11.875 32.6167 11.9167 32.05 12.25L24.25 16.75L22.075 15.5L29.875 11C30.4417 10.6667 30.95 10.625 31.4 10.875L33.55 12.125ZM24.25 16.75V35.25L22.075 34V15.5L24.25 16.75Z" fill="black"/>
<path d="M32.05 12.25L32.5497 13.1162L32.557 13.1119L32.05 12.25ZM33.55 12.125L34.0497 11.2588L34.0497 11.2588L33.55 12.125ZM33.9 18.4L34.8285 18.7714L34.8285 18.7714L33.9 18.4ZM33.1 19.8L32.3074 19.1903L32.3038 19.1949L33.1 19.8ZM32.05 20.75L31.543 19.8881L32.5421 21.6206L32.05 20.75ZM33.55 20.625L34.0497 19.7588L34.0497 19.7588L33.55 20.625ZM33.9 28.425L34.8241 28.8074L34.8285 28.7964L33.9 28.425ZM33.1 29.8L32.3074 29.1903L32.3038 29.1949L33.1 29.8ZM32.05 30.75L31.5579 29.8794L31.5512 29.8833L32.05 30.75ZM28.575 32.75L28.0762 31.8833L28.068 31.8881L28.575 32.75ZM27.075 32.875L26.5753 33.7412L27.075 32.875ZM26.425 34L26.9233 34.867L27.425 34.5787V34H26.425ZM24.25 35.25H23.25V36.9781L24.7483 36.117L24.25 35.25ZM24.25 16.75L23.7503 15.8838L23.25 16.1724V16.75H24.25ZM32.05 20.75L32.5503 21.6159L33.05 21.3271V20.75H32.05ZM32.05 14.75H33.05V13.0173L31.5497 13.8841L32.05 14.75ZM26.425 18L25.9247 17.1341L25.425 17.4229V18H26.425ZM26.425 24H25.425V25.7327L26.9253 24.8659L26.425 24ZM32.05 23.25H33.05V21.5173L31.5497 22.3841L32.05 23.25ZM26.425 26.5L25.9247 25.6341L25.425 25.9229V26.5H26.425ZM26.425 31.5H25.425V33.2327L26.9253 32.3659L26.425 31.5ZM32.05 28.25L32.5503 29.1159L33.05 28.8271V28.25H32.05ZM26.425 31.5H27.425V30.9213L26.9233 30.633L26.425 31.5ZM27.075 32.875L26.5767 33.742L27.5747 32.0088L27.075 32.875ZM24.9 31.625L24.4003 32.4912L24.4017 32.492L24.9 31.625ZM24.25 30.25L24.7483 29.383L23.25 28.5219V30.25H24.25ZM33.55 20.625L33.0503 21.4912L34.0526 19.7605L33.55 20.625ZM32.05 20.75L31.5517 21.617L32.0558 21.9067L32.557 21.6119L32.05 20.75ZM29.875 19.5L29.368 18.6381L27.8856 19.5101L29.3767 20.367L29.875 19.5ZM31.4 19.375L31.9026 18.5105L31.8942 18.5056L31.8856 18.5008L31.4 19.375ZM32.05 23.25H33.05V22.6713L32.5483 22.383L32.05 23.25ZM32.05 28.25L31.5517 29.117L33.05 29.9781V28.25H32.05ZM29.875 27H28.875V27.5787L29.3767 27.867L29.875 27ZM29.875 22L30.3733 21.133L28.875 20.2719V22H29.875ZM32.05 28.25L32.5503 29.1159L34.0529 28.2477L32.5483 27.383L32.05 28.25ZM26.425 31.5L25.9267 32.367L26.4263 32.6541L26.9253 32.3659L26.425 31.5ZM24.25 30.25L23.7497 29.3841L22.2471 30.2523L23.7517 31.117L24.25 30.25ZM29.875 27L30.3733 26.133L29.8737 25.8459L29.3747 26.1341L29.875 27ZM32.05 14.75H33.05V14.1713L32.5483 13.883L32.05 14.75ZM32.05 20.75L31.5517 21.617L33.05 22.4781V20.75H32.05ZM29.875 19.5H28.875V20.0787L29.3767 20.367L29.875 19.5ZM29.875 13.5L30.3733 12.633L28.875 11.7719V13.5H29.875ZM32.05 20.75L32.5503 21.6159L34.0529 20.7477L32.5483 19.883L32.05 20.75ZM26.425 24L25.9267 24.867L26.4263 25.1541L26.9253 24.8659L26.425 24ZM24.25 22.75L23.7497 21.8841L22.2471 22.7523L23.7517 23.617L24.25 22.75ZM29.875 19.5L30.3733 18.633L29.8737 18.3459L29.3747 18.6341L29.875 19.5ZM33.55 12.125L33.0503 12.9912L34.0526 11.2605L33.55 12.125ZM32.05 12.25L32.5497 13.1162L32.557 13.1119L32.05 12.25ZM24.25 16.75L23.7517 17.617L24.251 17.9039L24.7497 17.6162L24.25 16.75ZM22.075 15.5L21.5753 14.6338L20.071 15.5017L21.5767 16.367L22.075 15.5ZM29.875 11L30.3747 11.8662L30.382 11.8619L29.875 11ZM31.4 10.875L31.9026 10.0105L31.8942 10.0056L31.8856 10.0008L31.4 10.875ZM24.25 16.75H25.25V16.1713L24.7483 15.883L24.25 16.75ZM24.25 35.25L23.7517 36.117L25.25 36.9781V35.25H24.25ZM22.075 34H21.075V34.5787L21.5767 34.867L22.075 34ZM22.075 15.5L22.5733 14.633L21.075 13.7719V15.5H22.075ZM32.05 12.25L32.557 13.1119C32.7495 12.9987 32.8716 12.9704 32.933 12.9653C32.9807 12.9613 33.0106 12.9683 33.0503 12.9912L33.55 12.125L34.0497 11.2588C33.2063 10.7722 32.308 10.938 31.543 11.3881L32.05 12.25ZM33.55 12.125L33.0503 12.9912C33.0881 13.013 33.1108 13.0358 33.1334 13.0836C33.162 13.144 33.2 13.2699 33.2 13.5H34.2H35.2C35.2 12.6113 34.8943 11.7461 34.0497 11.2588L33.55 12.125ZM34.2 13.5H33.2V17H34.2H35.2V13.5H34.2ZM34.2 17H33.2C33.2 17.2793 33.1354 17.619 32.9715 18.0286L33.9 18.4L34.8285 18.7714C35.0646 18.181 35.2 17.5873 35.2 17H34.2ZM33.9 18.4L32.9715 18.0286C32.8062 18.442 32.5856 18.8287 32.3074 19.1903L33.1 19.8L33.8926 20.4097C34.2811 19.9047 34.5938 19.358 34.8285 18.7714L33.9 18.4ZM33.1 19.8L32.3038 19.1949C32.0542 19.5234 31.8028 19.741 31.5579 19.8794L32.05 20.75L32.5421 21.6206C33.0639 21.3256 33.5125 20.9099 33.8962 20.4051L33.1 19.8ZM32.05 20.75L32.557 21.6119C32.7495 21.4987 32.8716 21.4704 32.933 21.4653C32.9807 21.4613 33.0106 21.4683 33.0503 21.4912L33.55 20.625L34.0497 19.7588C33.2063 19.2722 32.308 19.438 31.543 19.8881L32.05 20.75ZM33.55 20.625L33.0503 21.4912C33.0881 21.513 33.1108 21.5358 33.1334 21.5836C33.162 21.644 33.2 21.7699 33.2 22H34.2H35.2C35.2 21.1113 34.8943 20.2461 34.0497 19.7588L33.55 20.625ZM34.2 22H33.2V27H34.2H35.2V22H34.2ZM34.2 27H33.2C33.2 27.3004 33.1334 27.649 32.9715 28.0536L33.9 28.425L34.8285 28.7964C35.0666 28.201 35.2 27.5996 35.2 27H34.2ZM33.9 28.425L32.976 28.0426C32.8111 28.4412 32.5895 28.8235 32.3074 29.1903L33.1 29.8L33.8926 30.4097C34.2771 29.9098 34.5889 29.3755 34.824 28.8074L33.9 28.425ZM33.1 29.8L32.3038 29.1949C32.0542 29.5234 31.8028 29.741 31.5579 29.8794L32.05 30.75L32.5421 31.6206C33.0639 31.3256 33.5125 30.9099 33.8962 30.4051L33.1 29.8ZM32.05 30.75L31.5512 29.8833L28.0762 31.8833L28.575 32.75L29.0738 33.6167L32.5488 31.6167L32.05 30.75ZM28.575 32.75L28.068 31.8881C27.8755 32.0013 27.7534 32.0296 27.692 32.0347C27.6443 32.0387 27.6144 32.0317 27.5747 32.0088L27.075 32.875L26.5753 33.7412C27.4187 34.2278 28.317 34.062 29.082 33.6119L28.575 32.75ZM27.075 32.875L27.5747 32.0088C27.5369 31.987 27.5142 31.9642 27.4916 31.9164C27.463 31.856 27.425 31.7301 27.425 31.5H26.425H25.425C25.425 32.3887 25.7307 33.2539 26.5753 33.7412L27.075 32.875ZM26.425 31.5H25.425V34H26.425H27.425V31.5H26.425ZM26.425 34L25.9267 33.133L23.7517 34.383L24.25 35.25L24.7483 36.117L26.9233 34.867L26.425 34ZM24.25 35.25H25.25V16.75H24.25H23.25V35.25H24.25ZM24.25 16.75L24.7497 17.6162L32.5497 13.1162L32.05 12.25L31.5503 11.3838L23.7503 15.8838L24.25 16.75ZM32.05 20.75H33.05V14.75H32.05H31.05V20.75H32.05ZM32.05 14.75L31.5497 13.8841L25.9247 17.1341L26.425 18L26.9253 18.8659L32.5503 15.6159L32.05 14.75ZM26.425 18H25.425V24H26.425H27.425V18H26.425ZM26.425 24L26.9253 24.8659L32.5503 21.6159L32.05 20.75L31.5497 19.8841L25.9247 23.1341L26.425 24ZM32.05 23.25L31.5497 22.3841L25.9247 25.6341L26.425 26.5L26.9253 27.3659L32.5503 24.1159L32.05 23.25ZM26.425 26.5H25.425V31.5H26.425H27.425V26.5H26.425ZM26.425 31.5L26.9253 32.3659L32.5503 29.1159L32.05 28.25L31.5497 27.3841L25.9247 30.6341L26.425 31.5ZM32.05 28.25H33.05V23.25H32.05H31.05V28.25H32.05ZM26.425 31.5H25.425C25.425 32.3887 25.7307 33.2539 26.5753 33.7412L27.075 32.875L27.5747 32.0088C27.5369 31.987 27.5142 31.9642 27.4916 31.9164C27.463 31.856 27.425 31.7301 27.425 31.5H26.425ZM27.075 32.875L27.5733 32.008L25.3983 30.758L24.9 31.625L24.4017 32.492L26.5767 33.742L27.075 32.875ZM24.9 31.625L25.3997 30.7588C25.3619 30.737 25.3392 30.7142 25.3166 30.6664C25.288 30.606 25.25 30.4801 25.25 30.25H24.25H23.25C23.25 31.1387 23.5557 32.0039 24.4003 32.4912L24.9 31.625ZM24.25 30.25L23.7517 31.117L25.9267 32.367L26.425 31.5L26.9233 30.633L24.7483 29.383L24.25 30.25ZM33.55 20.625L34.0497 19.7588C33.2063 19.2722 32.308 19.438 31.543 19.8881L32.05 20.75L32.557 21.6119C32.7495 21.4987 32.8716 21.4704 32.933 21.4653C32.9807 21.4613 33.0106 21.4683 33.0503 21.4912L33.55 20.625ZM32.05 20.75L32.5483 19.883L30.3733 18.633L29.875 19.5L29.3767 20.367L31.5517 21.617L32.05 20.75ZM29.875 19.5L30.382 20.3619C30.7408 20.1509 30.8616 20.2198 30.9144 20.2492L31.4 19.375L31.8856 18.5008C31.0384 18.0302 30.1425 18.1824 29.368 18.6381L29.875 19.5ZM31.4 19.375L30.8974 20.2395L33.0474 21.4895L33.55 20.625L34.0526 19.7605L31.9026 18.5105L31.4 19.375ZM32.05 23.25H31.05V28.25H32.05H33.05V23.25H32.05ZM32.05 28.25L32.5483 27.383L30.3733 26.133L29.875 27L29.3767 27.867L31.5517 29.117L32.05 28.25ZM29.875 27H30.875V22H29.875H28.875V27H29.875ZM29.875 22L29.3767 22.867L31.5517 24.117L32.05 23.25L32.5483 22.383L30.3733 21.133L29.875 22ZM32.05 28.25L31.5497 27.3841L25.9247 30.6341L26.425 31.5L26.9253 32.3659L32.5503 29.1159L32.05 28.25ZM26.425 31.5L26.9233 30.633L24.7483 29.383L24.25 30.25L23.7517 31.117L25.9267 32.367L26.425 31.5ZM24.25 30.25L24.7503 31.1159L30.3753 27.8659L29.875 27L29.3747 26.1341L23.7497 29.3841L24.25 30.25ZM29.875 27L29.3767 27.867L31.5517 29.117L32.05 28.25L32.5483 27.383L30.3733 26.133L29.875 27ZM32.05 14.75H31.05V20.75H32.05H33.05V14.75H32.05ZM32.05 20.75L32.5483 19.883L30.3733 18.633L29.875 19.5L29.3767 20.367L31.5517 21.617L32.05 20.75ZM29.875 19.5H30.875V13.5H29.875H28.875V19.5H29.875ZM29.875 13.5L29.3767 14.367L31.5517 15.617L32.05 14.75L32.5483 13.883L30.3733 12.633L29.875 13.5ZM32.05 20.75L31.5497 19.8841L25.9247 23.1341L26.425 24L26.9253 24.8659L32.5503 21.6159L32.05 20.75ZM26.425 24L26.9233 23.133L24.7483 21.883L24.25 22.75L23.7517 23.617L25.9267 24.867L26.425 24ZM24.25 22.75L24.7503 23.6159L30.3753 20.3659L29.875 19.5L29.3747 18.6341L23.7497 21.8841L24.25 22.75ZM29.875 19.5L29.3767 20.367L31.5517 21.617L32.05 20.75L32.5483 19.883L30.3733 18.633L29.875 19.5ZM33.55 12.125L34.0497 11.2588C33.2063 10.7722 32.308 10.938 31.543 11.3881L32.05 12.25L32.557 13.1119C32.7495 12.9987 32.8716 12.9704 32.933 12.9653C32.9807 12.9613 33.0106 12.9683 33.0503 12.9912L33.55 12.125ZM32.05 12.25L31.5503 11.3838L23.7503 15.8838L24.25 16.75L24.7497 17.6162L32.5497 13.1162L32.05 12.25ZM24.25 16.75L24.7483 15.883L22.5733 14.633L22.075 15.5L21.5767 16.367L23.7517 17.617L24.25 16.75ZM22.075 15.5L22.5747 16.3662L30.3747 11.8662L29.875 11L29.3753 10.1338L21.5753 14.6338L22.075 15.5ZM29.875 11L30.382 11.8619C30.7408 11.6509 30.8616 11.7198 30.9144 11.7492L31.4 10.875L31.8856 10.0008C31.0384 9.53016 30.1425 9.68245 29.368 10.1381L29.875 11ZM31.4 10.875L30.8974 11.7395L33.0474 12.9895L33.55 12.125L34.0526 11.2605L31.9026 10.0105L31.4 10.875ZM24.25 16.75H23.25V35.25H24.25H25.25V16.75H24.25ZM24.25 35.25L24.7483 34.383L22.5733 33.133L22.075 34L21.5767 34.867L23.7517 36.117L24.25 35.25ZM22.075 34H23.075V15.5H22.075H21.075V34H22.075ZM22.075 15.5L21.5767 16.367L23.7517 17.617L24.25 16.75L24.7483 15.883L22.5733 14.633L22.075 15.5Z" fill="white" mask="url(#path-4-outside-2_148_236)"/>
</g>
<defs>
<clipPath id="clip0_148_236">
<rect width="42" height="42" fill="white"/>
</clipPath>
</defs>
</svg>
