<svg width="390" height="390" viewBox="0 0 390 390" fill="none" xmlns="http://www.w3.org/2000/svg">
<g clip-path="url(#clip0_148_207)">
<path d="M195 29L339.626 112.5V279.5L195 363L50.3738 279.5V112.5L195 29Z" fill="black"/>
<mask id="path-2-outside-1_148_207" maskUnits="userSpaceOnUse" x="85" y="64" width="135" height="262" fill="black">
<rect fill="white" x="85" y="64" width="135" height="262"/>
<path d="M152.36 142.6L111.8 166V140L215.28 80.2V106.2L174.72 129.6V309L152.36 322V142.6ZM152.36 142.6V322L129.74 309V129.6L152.36 142.6ZM215.28 80.2L111.8 140L89.18 127L192.92 67.2L215.28 80.2ZM111.8 140V166L89.18 153V127L111.8 140Z"/>
</mask>
<path d="M152.36 142.6L111.8 166V140L215.28 80.2V106.2L174.72 129.6V309L152.36 322V142.6ZM152.36 142.6V322L129.74 309V129.6L152.36 142.6ZM215.28 80.2L111.8 140L89.18 127L192.92 67.2L215.28 80.2ZM111.8 140V166L89.18 153V127L111.8 140Z" fill="black"/>
<path d="M152.36 142.6H154.36V139.137L151.361 140.868L152.36 142.6ZM111.8 166H109.8V169.463L112.799 167.732L111.8 166ZM111.8 140L110.799 138.268L109.8 138.846V140H111.8ZM215.28 80.2H217.28V76.7343L214.279 78.4683L215.28 80.2ZM215.28 106.2L216.279 107.932L217.28 107.355V106.2H215.28ZM174.72 129.6L173.721 127.868L172.72 128.445V129.6H174.72ZM174.72 309L175.725 310.729L176.72 310.151V309H174.72ZM152.36 322H150.36V325.476L153.365 323.729L152.36 322ZM152.36 142.6H154.36V141.443L153.357 140.866L152.36 142.6ZM152.36 322L151.363 323.734L154.36 325.456V322H152.36ZM129.74 309H127.74V310.157L128.743 310.734L129.74 309ZM129.74 129.6L130.737 127.866L127.74 126.144V129.6H129.74ZM215.28 80.2L216.281 81.9316L219.268 80.2052L216.285 78.471L215.28 80.2ZM111.8 140L110.803 141.734L111.803 142.308L112.801 141.732L111.8 140ZM89.18 127L88.1812 125.267L85.1708 127.003L88.1834 128.734L89.18 127ZM192.92 67.2L193.925 65.471L192.924 64.889L191.921 65.4673L192.92 67.2ZM111.8 140H113.8V138.843L112.797 138.266L111.8 140ZM111.8 166L110.803 167.734L113.8 169.456V166H111.8ZM89.18 153H87.18V154.157L88.1834 154.734L89.18 153ZM89.18 127L90.1766 125.266L87.18 123.544V127H89.18ZM152.36 142.6L151.361 140.868L110.801 164.268L111.8 166L112.799 167.732L153.359 144.332L152.36 142.6ZM111.8 166H113.8V140H111.8H109.8V166H111.8ZM111.8 140L112.801 141.732L216.281 81.9316L215.28 80.2L214.279 78.4683L110.799 138.268L111.8 140ZM215.28 80.2H213.28V106.2H215.28H217.28V80.2H215.28ZM215.28 106.2L214.281 104.468L173.721 127.868L174.72 129.6L175.719 131.332L216.279 107.932L215.28 106.2ZM174.72 129.6H172.72V309H174.72H176.72V129.6H174.72ZM174.72 309L173.715 307.271L151.355 320.271L152.36 322L153.365 323.729L175.725 310.729L174.72 309ZM152.36 322H154.36V142.6H152.36H150.36V322H152.36ZM152.36 142.6H150.36V322H152.36H154.36V142.6H152.36ZM152.36 322L153.357 320.266L130.737 307.266L129.74 309L128.743 310.734L151.363 323.734L152.36 322ZM129.74 309H131.74V129.6H129.74H127.74V309H129.74ZM129.74 129.6L128.743 131.334L151.363 144.334L152.36 142.6L153.357 140.866L130.737 127.866L129.74 129.6ZM215.28 80.2L214.279 78.4683L110.799 138.268L111.8 140L112.801 141.732L216.281 81.9316L215.28 80.2ZM111.8 140L112.797 138.266L90.1766 125.266L89.18 127L88.1834 128.734L110.803 141.734L111.8 140ZM89.18 127L90.1788 128.733L193.919 68.9327L192.92 67.2L191.921 65.4673L88.1812 125.267L89.18 127ZM192.92 67.2L191.915 68.929L214.275 81.929L215.28 80.2L216.285 78.471L193.925 65.471L192.92 67.2ZM111.8 140H109.8V166H111.8H113.8V140H111.8ZM111.8 166L112.797 164.266L90.1766 151.266L89.18 153L88.1834 154.734L110.803 167.734L111.8 166ZM89.18 153H91.18V127H89.18H87.18V153H89.18ZM89.18 127L88.1834 128.734L110.803 141.734L111.8 140L112.797 138.266L90.1766 125.266L89.18 127Z" fill="white" mask="url(#path-2-outside-1_148_207)"/>
<mask id="path-4-outside-2_148_207" maskUnits="userSpaceOnUse" x="185" y="89" width="119" height="232" fill="black">
<rect fill="white" x="185" y="89" width="119" height="232"/>
<path d="M281.66 105.9C286.873 102.833 291.473 102.45 295.46 104.75C299.447 107.05 301.44 111.267 301.44 117.4V149.6C301.44 153.587 300.52 157.88 298.68 162.48C296.84 167.08 294.387 171.373 291.32 175.36C288.407 179.193 285.187 182.107 281.66 184.1C286.873 181.033 291.473 180.65 295.46 182.95C299.447 185.25 301.44 189.467 301.44 195.6V241.6C301.44 245.74 300.52 250.11 298.68 254.71C296.84 259.157 294.387 263.373 291.32 267.36C288.407 271.193 285.187 274.107 281.66 276.1L249.69 294.5C244.477 297.567 239.877 297.95 235.89 295.65C231.903 293.35 229.91 289.133 229.91 283V306L209.9 317.5V147.3L281.66 105.9ZM281.66 184.1V128.9L229.91 158.8V214L281.66 184.1ZM281.66 207.1L229.91 237V283L281.66 253.1V207.1ZM229.91 283C229.91 289.133 231.903 293.35 235.89 295.65L215.88 284.15C211.893 281.85 209.9 277.633 209.9 271.5L229.91 283ZM295.46 182.95C291.473 180.65 286.873 181.033 281.66 184.1L261.65 172.6C266.863 169.533 271.54 169.15 275.68 171.45L295.46 182.95ZM281.66 207.1V253.1L261.65 241.6V195.6L281.66 207.1ZM281.66 253.1L229.91 283L209.9 271.5L261.65 241.6L281.66 253.1ZM281.66 128.9V184.1L261.65 172.6V117.4L281.66 128.9ZM281.66 184.1L229.91 214L209.9 202.5L261.65 172.6L281.66 184.1ZM295.46 104.75C291.473 102.45 286.873 102.833 281.66 105.9L209.9 147.3L189.89 135.8L261.65 94.4C266.863 91.3333 271.54 90.95 275.68 93.25L295.46 104.75ZM209.9 147.3V317.5L189.89 306V135.8L209.9 147.3Z"/>
</mask>
<path d="M281.66 105.9C286.873 102.833 291.473 102.45 295.46 104.75C299.447 107.05 301.44 111.267 301.44 117.4V149.6C301.44 153.587 300.52 157.88 298.68 162.48C296.84 167.08 294.387 171.373 291.32 175.36C288.407 179.193 285.187 182.107 281.66 184.1C286.873 181.033 291.473 180.65 295.46 182.95C299.447 185.25 301.44 189.467 301.44 195.6V241.6C301.44 245.74 300.52 250.11 298.68 254.71C296.84 259.157 294.387 263.373 291.32 267.36C288.407 271.193 285.187 274.107 281.66 276.1L249.69 294.5C244.477 297.567 239.877 297.95 235.89 295.65C231.903 293.35 229.91 289.133 229.91 283V306L209.9 317.5V147.3L281.66 105.9ZM281.66 184.1V128.9L229.91 158.8V214L281.66 184.1ZM281.66 207.1L229.91 237V283L281.66 253.1V207.1ZM229.91 283C229.91 289.133 231.903 293.35 235.89 295.65L215.88 284.15C211.893 281.85 209.9 277.633 209.9 271.5L229.91 283ZM295.46 182.95C291.473 180.65 286.873 181.033 281.66 184.1L261.65 172.6C266.863 169.533 271.54 169.15 275.68 171.45L295.46 182.95ZM281.66 207.1V253.1L261.65 241.6V195.6L281.66 207.1ZM281.66 253.1L229.91 283L209.9 271.5L261.65 241.6L281.66 253.1ZM281.66 128.9V184.1L261.65 172.6V117.4L281.66 128.9ZM281.66 184.1L229.91 214L209.9 202.5L261.65 172.6L281.66 184.1ZM295.46 104.75C291.473 102.45 286.873 102.833 281.66 105.9L209.9 147.3L189.89 135.8L261.65 94.4C266.863 91.3333 271.54 90.95 275.68 93.25L295.46 104.75ZM209.9 147.3V317.5L189.89 306V135.8L209.9 147.3Z" fill="black"/>
<path d="M281.66 105.9L282.659 107.632L282.667 107.628L282.674 107.624L281.66 105.9ZM295.46 104.75L296.459 103.018L296.459 103.018L295.46 104.75ZM298.68 162.48L300.537 163.223H300.537L298.68 162.48ZM291.32 175.36L289.735 174.141L289.728 174.15L291.32 175.36ZM281.66 184.1L280.646 182.376L282.644 185.841L281.66 184.1ZM295.46 182.95L296.459 181.218V181.218L295.46 182.95ZM298.68 254.71L300.528 255.475L300.533 255.464L300.537 255.453L298.68 254.71ZM291.32 267.36L289.735 266.141L289.728 266.15L291.32 267.36ZM281.66 276.1L280.676 274.359L280.669 274.363L280.662 274.367L281.66 276.1ZM249.69 294.5L248.692 292.767L248.684 292.771L248.676 292.776L249.69 294.5ZM235.89 295.65L234.891 297.382L235.89 295.65ZM229.91 306L230.907 307.734L231.91 307.157V306H229.91ZM209.9 317.5H207.9V320.956L210.897 319.234L209.9 317.5ZM209.9 147.3L208.901 145.568L207.9 146.145V147.3H209.9ZM281.66 184.1L282.661 185.832L283.66 185.254V184.1H281.66ZM281.66 128.9H283.66V125.435L280.659 127.168L281.66 128.9ZM229.91 158.8L228.909 157.068L227.91 157.646V158.8H229.91ZM229.91 214H227.91V217.465L230.911 215.732L229.91 214ZM281.66 207.1H283.66V203.635L280.659 205.368L281.66 207.1ZM229.91 237L228.909 235.268L227.91 235.846V237H229.91ZM229.91 283H227.91V286.465L230.911 284.732L229.91 283ZM281.66 253.1L282.661 254.832L283.66 254.254V253.1H281.66ZM229.91 283H231.91V281.843L230.907 281.266L229.91 283ZM235.89 295.65L234.893 297.384L236.889 293.918L235.89 295.65ZM215.88 284.15L214.881 285.882L214.883 285.884L215.88 284.15ZM209.9 271.5L210.897 269.766L207.9 268.044V271.5H209.9ZM295.46 182.95L294.461 184.682L296.465 181.221L295.46 182.95ZM281.66 184.1L280.663 185.834L281.672 186.413L282.674 185.824L281.66 184.1ZM261.65 172.6L260.636 170.876L257.671 172.62L260.653 174.334L261.65 172.6ZM275.68 171.45L276.685 169.721L276.668 169.711L276.651 169.702L275.68 171.45ZM281.66 207.1H283.66V205.943L282.657 205.366L281.66 207.1ZM281.66 253.1L280.663 254.834L283.66 256.556V253.1H281.66ZM261.65 241.6H259.65V242.757L260.653 243.334L261.65 241.6ZM261.65 195.6L262.647 193.866L259.65 192.144V195.6H261.65ZM281.66 253.1L282.661 254.832L285.666 253.095L282.657 251.366L281.66 253.1ZM229.91 283L228.913 284.734L229.913 285.308L230.911 284.732L229.91 283ZM209.9 271.5L208.899 269.768L205.894 271.505L208.903 273.234L209.9 271.5ZM261.65 241.6L262.647 239.866L261.647 239.292L260.649 239.868L261.65 241.6ZM281.66 128.9H283.66V127.743L282.657 127.166L281.66 128.9ZM281.66 184.1L280.663 185.834L283.66 187.556V184.1H281.66ZM261.65 172.6H259.65V173.757L260.653 174.334L261.65 172.6ZM261.65 117.4L262.647 115.666L259.65 113.944V117.4H261.65ZM281.66 184.1L282.661 185.832L285.666 184.095L282.657 182.366L281.66 184.1ZM229.91 214L228.913 215.734L229.913 216.308L230.911 215.732L229.91 214ZM209.9 202.5L208.899 200.768L205.894 202.505L208.903 204.234L209.9 202.5ZM261.65 172.6L262.647 170.866L261.647 170.292L260.649 170.868L261.65 172.6ZM295.46 104.75L294.461 106.482L296.465 103.021L295.46 104.75ZM281.66 105.9L282.659 107.632L282.667 107.628L282.674 107.624L281.66 105.9ZM209.9 147.3L208.903 149.034L209.902 149.608L210.899 149.032L209.9 147.3ZM189.89 135.8L188.891 134.068L185.882 135.803L188.893 137.534L189.89 135.8ZM261.65 94.4L262.649 96.1324L262.657 96.1281L262.664 96.1239L261.65 94.4ZM275.68 93.25L276.685 91.521L276.668 91.5112L276.651 91.5017L275.68 93.25ZM209.9 147.3H211.9V146.143L210.897 145.566L209.9 147.3ZM209.9 317.5L208.903 319.234L211.9 320.956V317.5H209.9ZM189.89 306H187.89V307.157L188.893 307.734L189.89 306ZM189.89 135.8L190.887 134.066L187.89 132.344V135.8H189.89ZM281.66 105.9L282.674 107.624C287.491 104.791 291.294 104.656 294.461 106.482L295.46 104.75L296.459 103.018C291.653 100.244 286.256 100.876 280.646 104.176L281.66 105.9ZM295.46 104.75L294.461 106.482C297.625 108.308 299.44 111.711 299.44 117.4H301.44H303.44C303.44 110.823 301.269 105.792 296.459 103.018L295.46 104.75ZM301.44 117.4H299.44V149.6H301.44H303.44V117.4H301.44ZM301.44 149.6H299.44C299.44 153.279 298.591 157.318 296.823 161.737L298.68 162.48L300.537 163.223C302.449 158.442 303.44 153.895 303.44 149.6H301.44ZM298.68 162.48L296.823 161.737C295.052 166.164 292.691 170.297 289.735 174.141L291.32 175.36L292.905 176.579C296.082 172.449 298.628 167.996 300.537 163.223L298.68 162.48ZM291.32 175.36L289.728 174.15C286.948 177.807 283.926 180.522 280.676 182.359L281.66 184.1L282.644 185.841C286.448 183.691 289.865 180.58 292.912 176.57L291.32 175.36ZM281.66 184.1L282.674 185.824C287.491 182.991 291.294 182.856 294.461 184.682L295.46 182.95L296.459 181.218C291.653 178.444 286.256 179.076 280.646 182.376L281.66 184.1ZM295.46 182.95L294.461 184.682C297.625 186.508 299.44 189.911 299.44 195.6H301.44H303.44C303.44 189.023 301.269 183.992 296.459 181.218L295.46 182.95ZM301.44 195.6H299.44V241.6H301.44H303.44V195.6H301.44ZM301.44 241.6H299.44C299.44 245.441 298.587 249.558 296.823 253.967L298.68 254.71L300.537 255.453C302.453 250.662 303.44 246.039 303.44 241.6H301.44ZM298.68 254.71L296.832 253.945C295.062 258.222 292.699 262.287 289.735 266.141L291.32 267.36L292.905 268.579C296.074 264.46 298.618 260.091 300.528 255.475L298.68 254.71ZM291.32 267.36L289.728 266.15C286.948 269.807 283.926 272.522 280.676 274.359L281.66 276.1L282.644 277.841C286.448 275.691 289.865 272.58 292.912 268.57L291.32 267.36ZM281.66 276.1L280.662 274.367L248.692 292.767L249.69 294.5L250.688 296.233L282.658 277.833L281.66 276.1ZM249.69 294.5L248.676 292.776C243.859 295.609 240.056 295.744 236.889 293.918L235.89 295.65L234.891 297.382C239.697 300.156 245.094 299.524 250.704 296.224L249.69 294.5ZM235.89 295.65L236.889 293.918C233.725 292.092 231.91 288.689 231.91 283H229.91H227.91C227.91 289.577 230.081 294.608 234.891 297.382L235.89 295.65ZM229.91 283H227.91V306H229.91H231.91V283H229.91ZM229.91 306L228.913 304.266L208.903 315.766L209.9 317.5L210.897 319.234L230.907 307.734L229.91 306ZM209.9 317.5H211.9V147.3H209.9H207.9V317.5H209.9ZM209.9 147.3L210.899 149.032L282.659 107.632L281.66 105.9L280.661 104.168L208.901 145.568L209.9 147.3ZM281.66 184.1H283.66V128.9H281.66H279.66V184.1H281.66ZM281.66 128.9L280.659 127.168L228.909 157.068L229.91 158.8L230.911 160.532L282.661 130.632L281.66 128.9ZM229.91 158.8H227.91V214H229.91H231.91V158.8H229.91ZM229.91 214L230.911 215.732L282.661 185.832L281.66 184.1L280.659 182.368L228.909 212.268L229.91 214ZM281.66 207.1L280.659 205.368L228.909 235.268L229.91 237L230.911 238.732L282.661 208.832L281.66 207.1ZM229.91 237H227.91V283H229.91H231.91V237H229.91ZM229.91 283L230.911 284.732L282.661 254.832L281.66 253.1L280.659 251.368L228.909 281.268L229.91 283ZM281.66 253.1H283.66V207.1H281.66H279.66V253.1H281.66ZM229.91 283H227.91C227.91 289.577 230.081 294.608 234.891 297.382L235.89 295.65L236.889 293.918C233.725 292.092 231.91 288.689 231.91 283H229.91ZM235.89 295.65L236.887 293.916L216.877 282.416L215.88 284.15L214.883 285.884L234.893 297.384L235.89 295.65ZM215.88 284.15L216.879 282.418C213.715 280.592 211.9 277.189 211.9 271.5H209.9H207.9C207.9 278.077 210.071 283.108 214.881 285.882L215.88 284.15ZM209.9 271.5L208.903 273.234L228.913 284.734L229.91 283L230.907 281.266L210.897 269.766L209.9 271.5ZM295.46 182.95L296.459 181.218C291.653 178.444 286.256 179.076 280.646 182.376L281.66 184.1L282.674 185.824C287.491 182.991 291.294 182.856 294.461 184.682L295.46 182.95ZM281.66 184.1L282.657 182.366L262.647 170.866L261.65 172.6L260.653 174.334L280.663 185.834L281.66 184.1ZM261.65 172.6L262.664 174.324C267.462 171.502 271.363 171.34 274.709 173.198L275.68 171.45L276.651 169.702C271.717 166.96 266.265 167.565 260.636 170.876L261.65 172.6ZM275.68 171.45L274.675 173.179L294.455 184.679L295.46 182.95L296.465 181.221L276.685 169.721L275.68 171.45ZM281.66 207.1H279.66V253.1H281.66H283.66V207.1H281.66ZM281.66 253.1L282.657 251.366L262.647 239.866L261.65 241.6L260.653 243.334L280.663 254.834L281.66 253.1ZM261.65 241.6H263.65V195.6H261.65H259.65V241.6H261.65ZM261.65 195.6L260.653 197.334L280.663 208.834L281.66 207.1L282.657 205.366L262.647 193.866L261.65 195.6ZM281.66 253.1L280.659 251.368L228.909 281.268L229.91 283L230.911 284.732L282.661 254.832L281.66 253.1ZM229.91 283L230.907 281.266L210.897 269.766L209.9 271.5L208.903 273.234L228.913 284.734L229.91 283ZM209.9 271.5L210.901 273.232L262.651 243.332L261.65 241.6L260.649 239.868L208.899 269.768L209.9 271.5ZM261.65 241.6L260.653 243.334L280.663 254.834L281.66 253.1L282.657 251.366L262.647 239.866L261.65 241.6ZM281.66 128.9H279.66V184.1H281.66H283.66V128.9H281.66ZM281.66 184.1L282.657 182.366L262.647 170.866L261.65 172.6L260.653 174.334L280.663 185.834L281.66 184.1ZM261.65 172.6H263.65V117.4H261.65H259.65V172.6H261.65ZM261.65 117.4L260.653 119.134L280.663 130.634L281.66 128.9L282.657 127.166L262.647 115.666L261.65 117.4ZM281.66 184.1L280.659 182.368L228.909 212.268L229.91 214L230.911 215.732L282.661 185.832L281.66 184.1ZM229.91 214L230.907 212.266L210.897 200.766L209.9 202.5L208.903 204.234L228.913 215.734L229.91 214ZM209.9 202.5L210.901 204.232L262.651 174.332L261.65 172.6L260.649 170.868L208.899 200.768L209.9 202.5ZM261.65 172.6L260.653 174.334L280.663 185.834L281.66 184.1L282.657 182.366L262.647 170.866L261.65 172.6ZM295.46 104.75L296.459 103.018C291.653 100.244 286.256 100.876 280.646 104.176L281.66 105.9L282.674 107.624C287.491 104.791 291.294 104.656 294.461 106.482L295.46 104.75ZM281.66 105.9L280.661 104.168L208.901 145.568L209.9 147.3L210.899 149.032L282.659 107.632L281.66 105.9ZM209.9 147.3L210.897 145.566L190.887 134.066L189.89 135.8L188.893 137.534L208.903 149.034L209.9 147.3ZM189.89 135.8L190.889 137.532L262.649 96.1324L261.65 94.4L260.651 92.6676L188.891 134.068L189.89 135.8ZM261.65 94.4L262.664 96.1239C267.462 93.3018 271.363 93.1397 274.709 94.9983L275.68 93.25L276.651 91.5017C271.717 88.7603 266.265 89.3649 260.636 92.6761L261.65 94.4ZM275.68 93.25L274.675 94.979L294.455 106.479L295.46 104.75L296.465 103.021L276.685 91.521L275.68 93.25ZM209.9 147.3H207.9V317.5H209.9H211.9V147.3H209.9ZM209.9 317.5L210.897 315.766L190.887 304.266L189.89 306L188.893 307.734L208.903 319.234L209.9 317.5ZM189.89 306H191.89V135.8H189.89H187.89V306H189.89ZM189.89 135.8L188.893 137.534L208.903 149.034L209.9 147.3L210.897 145.566L190.887 134.066L189.89 135.8Z" fill="white" mask="url(#path-4-outside-2_148_207)"/>
</g>
<defs>
<clipPath id="clip0_148_207">
<rect width="390" height="390" fill="white"/>
</clipPath>
</defs>
</svg>
