<svg width="400" height="400" viewBox="0 0 400 400" fill="none" xmlns="http://www.w3.org/2000/svg">
<g clip-path="url(#clip0_172_2275)">
<path d="M31.276 103.151H206.891V159.075H180.975V126.68H132.894L132.212 280.471H164.607V304H72.537V280.471H104.932L105.273 126.68H57.192V159.075H31.276V103.151ZM204.475 304V280.471H236.87V126.68H204.475V103.151H291.43C315.754 103.151 334.282 107.698 347.013 116.791C359.971 125.657 366.45 138.615 366.45 155.665C366.45 164.758 363.949 173.397 358.948 181.581C354.174 189.538 347.467 195.789 338.829 200.336C348.377 203.746 356.447 209.657 363.04 218.068C369.632 226.479 372.929 236.823 372.929 249.099C372.929 265.012 367.473 278.198 356.561 288.655C345.649 298.885 328.712 304 305.752 304H204.475ZM263.809 280.13H304.388C317.118 280.13 326.894 277.288 333.714 271.605C340.534 265.694 343.944 256.942 343.944 245.348C343.944 234.891 340.647 226.82 334.055 221.137C327.689 215.454 318.482 212.612 306.434 212.612H264.15L263.809 280.13ZM264.15 192.152H306.775C316.777 192.152 324.393 189.197 329.622 183.286C334.85 177.375 337.465 169.419 337.465 159.416C337.465 137.592 323.37 126.68 295.181 126.68H264.15V192.152Z" fill="white"/>
</g>
<defs>
<clipPath id="clip0_172_2275">
<rect width="400" height="400" fill="white"/>
</clipPath>
</defs>
</svg>
